<svg width="205" height="94" viewBox="0 0 205 94" fill="none" xmlns="http://www.w3.org/2000/svg">
<mask id="mask0_1238_24" style="mask-type:luminance" maskUnits="userSpaceOnUse" x="0" y="0" width="205" height="94">
<path d="M204.116 0H0V94H204.116V0Z" fill="white"/>
</mask>
<g mask="url(#mask0_1238_24)">
<path d="M104.548 0.00854492H90.7217C90.7217 3.67977 92.1785 7.20062 94.7715 9.79657C97.3645 12.3925 100.881 13.8509 104.548 13.8509V0.00854492Z" fill="#C20D19"/>
<path d="M39.5777 66.3939C36.5752 66.4099 33.5901 65.9339 30.7409 64.9848V47.6414H0.0341187C0.82738 57.0945 7.59995 70.2792 23.3372 77.5976C28.6255 79.5536 34.2217 80.5428 39.8592 80.518C63.6571 80.518 80.4862 64.037 80.4862 40.1522C80.4862 16.8653 62.5738 0.0170898 39.6459 0.0170898C33.2937 0.0300083 27.019 1.41619 21.2512 4.08084C15.4834 6.74551 10.3584 10.6258 6.22667 15.4563L16.4623 25.1229C23.1752 17.7534 30.997 14.09 39.8251 14.09C54.4194 14.09 65.6531 25.7036 65.9942 40.1522C66.344 55.062 54.317 66.3939 39.5522 66.3939" fill="black"/>
<path d="M190.545 61.0397H179.123C171.447 61.0397 165.476 59.5623 161.279 56.5906C157.083 53.6188 155.07 48.76 155.07 41.9284V21.8865H169.245V40.195C169.245 45.1393 172.582 47.7095 179.286 47.6498L184.847 47.5986H190.562V21.8865H204.712V78.5625H190.536L190.545 61.0397Z" fill="black"/>
<path d="M104.6 78.5624H90.6962V21.8779H104.557V57.359L138.539 21.8779H144.152V78.5624H130.291V50.2286L104.6 78.5624Z" fill="black"/>
<path d="M145.005 90.7654H90.8582V93.3101H145.005V90.7654Z" fill="black"/>
</g>
</svg>
